<svg xmlns="http://www.w3.org/2000/svg" viewBox="0 0 161.07 41.91"><defs><style>.cls-1{fill:#00c893;}</style></defs><title>Asset 1</title><g id="Layer_2" data-name="Layer 2"><g id="Layer_1-2" data-name="Layer 1"><path d="M22.31,29.81l6.34,5.7A15.15,15.15,0,0,1,16,41.91c-9.4,0-16-6.8-16-15.56S6.63,10.84,16,10.84a14.24,14.24,0,0,1,12.74,6.92l-6.63,5.7c-1.38-2.59-3.34-3.86-5.82-3.86-3.63,0-6.11,2.83-6.11,6.75s2.53,6.8,6.22,6.8C18.91,33.15,20.52,31.82,22.31,29.81Z"/><path d="M46.64,10.84c9.45,0,16.14,6.74,16.14,15.51S56.09,41.91,46.64,41.91,30.5,35.11,30.5,26.35,37.18,10.84,46.64,10.84Zm0,22.31c3.4,0,6-2.48,6-6.8s-2.65-6.75-6-6.75-6,2.42-6,6.75S43.24,33.15,46.64,33.15Z"/><path d="M81.69,10.84c9.45,0,16.14,6.74,16.14,15.51S91.14,41.91,81.69,41.91s-16.15-6.8-16.15-15.56S72.23,10.84,81.69,10.84Zm0,22.31c3.4,0,6-2.48,6-6.8s-2.65-6.75-6-6.75-6,2.42-6,6.75S78.28,33.15,81.69,33.15Z"/><path d="M102.49,0h10V30.5c0,1.38.17,2.82,2.48,2.82a5.37,5.37,0,0,0,2-.34v8.07a11.07,11.07,0,0,1-4.67.86c-6.23,0-9.81-3.34-9.81-9.57Z"/><rect x="121.17" y="11.53" width="10.03" height="29.69"/><path d="M135.76,35.11l6.4-4.9a7.81,7.81,0,0,0,6.68,4.21c2,0,3.12-.58,3.12-1.67,0-1.56-2-2.08-6.11-3.52-5.83-2.08-9.11-4.44-9.11-9.22,0-5.94,5.59-9.17,12.28-9.17,5.07,0,9.39,2.48,11.24,6L154,21.33a5.7,5.7,0,0,0-5.3-3c-1.56,0-2.88.64-2.88,1.73s1.78,1.39,6,3.17c4.67,1.85,9.23,3.41,9.23,9.29,0,5.3-5,9.39-12.34,9.39C143.19,41.91,138.24,39.49,135.76,35.11Z"/><rect class="cls-1" x="121.36" width="9.65" height="9.65" transform="translate(121.36 131.02) rotate(-90)"/></g></g></svg>