<svg xmlns="http://www.w3.org/2000/svg" viewBox="0 0 124.2 108.39"><defs><style>.cls-1{fill:#b2edca;}.cls-2{fill:#212529;}</style></defs><title>Asset 2</title><g id="Layer_2" data-name="Layer 2"><g id="Layer_1-2" data-name="Layer 1"><path class="cls-1" d="M93.28,6.32C85.64-3.27,60.42-1.92,47.2,10.16,23.85,31.47,31.92,91.63,64,105.2c16.34,6.91,41.11,2.65,52.8-13.44.49-.68,11.48-16.26,5.76-29.76-5.35-12.62-19.55-9.86-26.4-23C89.14,25.47,99.83,14.55,93.28,6.32Z"/><path class="cls-2" d="M34.17,60.72a3.92,3.92,0,0,1-2.78-1.16L20.71,48.79a3.91,3.91,0,1,1,5.56-5.51L34,51.05,49.89,32.7a3.92,3.92,0,0,1,5.92,5.14L37.12,59.37a3.94,3.94,0,0,1-2.82,1.35Z"/><path class="cls-2" d="M90.05,101.82a3.9,3.9,0,0,1-2.77-1.14L60,73.35a3.92,3.92,0,0,1,5.54-5.54L92.81,95.14a3.91,3.91,0,0,1-2.76,6.68Z"/><path class="cls-2" d="M38.17,84.21A38.18,38.18,0,1,1,76.34,46,38.22,38.22,0,0,1,38.17,84.21Zm0-68.52A30.35,30.35,0,1,0,68.51,46,30.38,30.38,0,0,0,38.17,15.69Z"/></g></g></svg>