<svg xmlns="http://www.w3.org/2000/svg" viewBox="0 0 116.96 109.15"><defs><style>.cls-1{fill:#b2edca;}.cls-2{fill:#212529;}</style></defs><title>Asset 1</title><g id="Layer_2" data-name="Layer 2"><g id="Layer_1-2" data-name="Layer 1"><path class="cls-1" d="M55.19,20.18C48.33,7.84,30.65-4.46,16,1.82c-14,6-19.09,26.26-14,38.52,3.84,9.34,11,8,19.44,19.44C31.9,74.17,25.81,83.44,33.59,94c10.83,14.69,41.06,21.7,60.48,7.2,18-13.44,22.44-42.19,13.55-49.68-10.05-8.46-34,12.86-45.23,3.24C54.5,48,63.56,35.24,55.19,20.18Z"/><path class="cls-2" d="M54.57,64.84l-11-4.69a2.76,2.76,0,1,0-2.15,5.08l11,4.69a2.76,2.76,0,0,0,2.16-5.08Z"/><path class="cls-2" d="M116.92,19.19a2.75,2.75,0,0,0-.14-.85,2.19,2.19,0,0,0-.26-.41,2.61,2.61,0,0,0-.17-.28,2.7,2.7,0,0,0-1.15-.89s0,0,0,0L71,.18A2.7,2.7,0,0,0,69,.22L30.33,16.77s-.06.06-.1.08a2.58,2.58,0,0,0-1,.81,2,2,0,0,0-.21.3,1.27,1.27,0,0,0-.18.27,2.72,2.72,0,0,0-.23,1.08h0V69a2.75,2.75,0,0,0,1.68,2.54L69,88.08h0a2.87,2.87,0,0,0,1.09.22,2.73,2.73,0,0,0,1-.18l.1,0h0l44.05-16.51A2.77,2.77,0,0,0,117,69V19.31S116.92,19.23,116.92,19.19ZM67.29,81.35,34.17,67.16V23.5L67.29,37.69Zm2.82-48.46L38.42,19.31,70.11,5.74l36.23,13.57L97.7,22.55,82.22,15.61a2.73,2.73,0,0,0-2.43.1L69,20.31a2.77,2.77,0,0,0,0,5.1l10,4.15Zm19.25-1.32,5.52-2.07V43L89.36,45Zm-2.75-4.86-9.43-3.89,3.9-1.66,9.28,4.15Zm24.83,40.36L72.81,81.55V37.78l11-4.14V49A2.77,2.77,0,0,0,85,51.27a2.72,2.72,0,0,0,1.57.49,2.91,2.91,0,0,0,1-.17l11-4.14a2.77,2.77,0,0,0,1.79-2.58V27.43l11-4.14Z"/></g></g></svg>