<svg xmlns="http://www.w3.org/2000/svg" viewBox="0 0 130.3 136.85"><defs><style>.cls-1{fill:#b2edca;}.cls-2{fill:#212529;}</style></defs><title>Asset 3</title><g id="Layer_2" data-name="Layer 2"><g id="Layer_1-2" data-name="Layer 1"><path class="cls-1" d="M106.07,4.1c-9.8-2.09-18,13.82-47.53,30.05C40.68,44,31,38.56,17.5,51.07,3.42,64.12,1.1,81.93.58,86.35s-3.87,33.3,14,45.36c15.7,10.58,40.67,3.54,54-9.36,15-14.5,6.46-27.88,26.28-61.92,7-12,18-14.21,20.77-24.12C121.44,15.94,114.55,5.91,106.07,4.1Z"/><path class="cls-2" d="M39,113.27H22a4.89,4.89,0,0,1-3.84-1.83,5,5,0,0,1-1-4.2,53,53,0,0,1,50.5-42l1.22,0,1.24,0a52.18,52.18,0,0,1,17.33,3.34,4.8,4.8,0,1,0,3.37-9c-.79-.3-1.59-.58-2.39-.84a32.64,32.64,0,1,0-39.07,0,62.46,62.46,0,0,0-41.6,46.51A14.59,14.59,0,0,0,22,122.87H39a4.8,4.8,0,0,0,0-9.6Zm6.83-80.63A23,23,0,1,1,70,55.65l-1.12,0-1.12,0A23.07,23.07,0,0,1,45.83,32.64Z"/><path class="cls-2" d="M126.63,82.7a12.92,12.92,0,0,0-11.8-7.59h-15a12.71,12.71,0,0,0-12,8.11c-.25.66-.56,1.49-.88,2.45H55.52a4.79,4.79,0,0,0-3.44,1.46l-8.25,8.49a4.81,4.81,0,0,0,0,6.71l8.4,8.54a4.8,4.8,0,0,0,3.42,1.44h15.6a4.8,4.8,0,0,0,0-9.6H57.69L54,98.94l3.57-3.67h33a4.79,4.79,0,0,0,4.66-3.66,40.87,40.87,0,0,1,1.58-4.94,3.16,3.16,0,0,1,3.06-2h15a3.27,3.27,0,0,1,3.05,1.9,31.17,31.17,0,0,1,2.84,12.24,31.93,31.93,0,0,1-2.82,12.45,3.28,3.28,0,0,1-3,2H99.72a3.44,3.44,0,0,1-3.1-2.13,32,32,0,0,1-1.48-4.75,4.8,4.8,0,0,0-9.34,2.23,42.17,42.17,0,0,0,2,6.18,13,13,0,0,0,12,8.07h15.18a12.88,12.88,0,0,0,11.8-7.73,41.47,41.47,0,0,0,3.61-16.31A40.47,40.47,0,0,0,126.63,82.7Z"/><circle class="cls-2" cx="110.87" cy="98.87" r="4.8"/></g></g></svg>